ISO-10303-21;
HEADER;
/* Generated by software containing ST-Developer
 * from STEP Tools, Inc. (www.steptools.com) 
 */
/* OPTION: using custom schema-name function */

FILE_DESCRIPTION(
/* description */ (''),
/* implementation_level */ '2;1');

FILE_NAME(
/* name */ 'SEEB-ALR-as-built',
/* time_stamp */ '2010-11-03T13:49:32-07:00',
/* author */ (''),
/* organization */ (''),
/* preprocessor_version */ 'ST-DEVELOPER v9',
/* originating_system */ 'UGS - NX 4.0',
/* authorisation */ '');

FILE_SCHEMA (('CONFIG_CONTROL_DESIGN','SHAPE_APPEARANCE_LAYER_MIM'));
ENDSEC;

DATA;
#10=GEOMETRICALLY_BOUNDED_WIREFRAME_SHAPE_REPRESENTATION(
'SEEB-ALR-as-built-None',(#97),#586);
#11=SHAPE_REPRESENTATION_RELATIONSHIP('None',
'relationship between SEEB-ALR-as-built-None and SEEB-ALR-as-built-None
',#96,#13);
#12=SHAPE_REPRESENTATION_RELATIONSHIP('None',
'relationship between SEEB-ALR-as-built-None and SEEB-ALR-as-built-None
',#96,#10);
#13=ADVANCED_BREP_SHAPE_REPRESENTATION('SEEB-ALR-as-built-None',(#103),#586);
#14=CC_DESIGN_APPROVAL(#26,(#84));
#15=CC_DESIGN_APPROVAL(#27,(#86));
#16=CC_DESIGN_APPROVAL(#28,(#33));
#17=APPROVAL_PERSON_ORGANIZATION(#71,#26,#20);
#18=APPROVAL_PERSON_ORGANIZATION(#72,#27,#21);
#19=APPROVAL_PERSON_ORGANIZATION(#73,#28,#22);
#20=APPROVAL_ROLE('approver');
#21=APPROVAL_ROLE('approver');
#22=APPROVAL_ROLE('approver');
#23=APPROVAL_DATE_TIME(#41,#26);
#24=APPROVAL_DATE_TIME(#42,#27);
#25=APPROVAL_DATE_TIME(#43,#28);
#26=APPROVAL(#29,' ');
#27=APPROVAL(#30,' ');
#28=APPROVAL(#31,' ');
#29=APPROVAL_STATUS('not_yet_approved');
#30=APPROVAL_STATUS('not_yet_approved');
#31=APPROVAL_STATUS('not_yet_approved');
#32=CC_DESIGN_SECURITY_CLASSIFICATION(#33,(#86));
#33=SECURITY_CLASSIFICATION(' ',' ',#34);
#34=SECURITY_CLASSIFICATION_LEVEL('confidential');
#35=CC_DESIGN_DATE_AND_TIME_ASSIGNMENT(#39,#37,(#84));
#36=CC_DESIGN_DATE_AND_TIME_ASSIGNMENT(#40,#38,(#33));
#37=DATE_TIME_ROLE('creation_date');
#38=DATE_TIME_ROLE('classification_date');
#39=DATE_AND_TIME(#54,#44);
#40=DATE_AND_TIME(#55,#45);
#41=DATE_AND_TIME(#56,#46);
#42=DATE_AND_TIME(#57,#47);
#43=DATE_AND_TIME(#58,#48);
#44=LOCAL_TIME(0,0,0.,#49);
#45=LOCAL_TIME(0,0,0.,#50);
#46=LOCAL_TIME(0,0,0.,#51);
#47=LOCAL_TIME(0,0,0.,#52);
#48=LOCAL_TIME(0,0,0.,#53);
#49=COORDINATED_UNIVERSAL_TIME_OFFSET(0,0,.BEHIND.);
#50=COORDINATED_UNIVERSAL_TIME_OFFSET(0,0,.BEHIND.);
#51=COORDINATED_UNIVERSAL_TIME_OFFSET(0,0,.BEHIND.);
#52=COORDINATED_UNIVERSAL_TIME_OFFSET(0,0,.BEHIND.);
#53=COORDINATED_UNIVERSAL_TIME_OFFSET(0,0,.BEHIND.);
#54=CALENDAR_DATE(0,1,1);
#55=CALENDAR_DATE(0,1,1);
#56=CALENDAR_DATE(0,1,1);
#57=CALENDAR_DATE(0,1,1);
#58=CALENDAR_DATE(0,1,1);
#59=CC_DESIGN_PERSON_AND_ORGANIZATION_ASSIGNMENT(#67,#63,(#84,#86));
#60=CC_DESIGN_PERSON_AND_ORGANIZATION_ASSIGNMENT(#68,#64,(#88));
#61=CC_DESIGN_PERSON_AND_ORGANIZATION_ASSIGNMENT(#69,#65,(#86));
#62=CC_DESIGN_PERSON_AND_ORGANIZATION_ASSIGNMENT(#70,#66,(#33));
#63=PERSON_AND_ORGANIZATION_ROLE('creator');
#64=PERSON_AND_ORGANIZATION_ROLE('design_owner');
#65=PERSON_AND_ORGANIZATION_ROLE('design_supplier');
#66=PERSON_AND_ORGANIZATION_ROLE('classification_officer');
#67=PERSON_AND_ORGANIZATION(#81,#74);
#68=PERSON_AND_ORGANIZATION(#81,#75);
#69=PERSON_AND_ORGANIZATION(#81,#76);
#70=PERSON_AND_ORGANIZATION(#81,#77);
#71=PERSON_AND_ORGANIZATION(#81,#78);
#72=PERSON_AND_ORGANIZATION(#81,#79);
#73=PERSON_AND_ORGANIZATION(#81,#80);
#74=ORGANIZATION(' ',' ',' ');
#75=ORGANIZATION(' ',' ',' ');
#76=ORGANIZATION(' ',' ',' ');
#77=ORGANIZATION(' ',' ',' ');
#78=ORGANIZATION(' ',' ',' ');
#79=ORGANIZATION(' ',' ',' ');
#80=ORGANIZATION(' ',' ',' ');
#81=PERSON(' ',' ',' ',(' '),$,$);
#82=SHAPE_DEFINITION_REPRESENTATION(#83,#96);
#83=PRODUCT_DEFINITION_SHAPE('','',#84);
#84=PRODUCT_DEFINITION(' ','',#86,#85);
#85=DESIGN_CONTEXT('',#95,'design');
#86=PRODUCT_DEFINITION_FORMATION_WITH_SPECIFIED_SOURCE(' ',' ',#88,.NOT_KNOWN.);
#87=PRODUCT_RELATED_PRODUCT_CATEGORY('detail','',(#88));
#88=PRODUCT('SEEB-ALR-as-built','SEEB-ALR-as-built',' ',(#93));
#89=PRODUCT_CATEGORY_RELATIONSHIP(' ',' ',#91,#92);
#90=PRODUCT_CATEGORY_RELATIONSHIP('','',#92,#87);
#91=PRODUCT_CATEGORY('part',' ');
#92=PRODUCT_CATEGORY(' ','');
#93=MECHANICAL_CONTEXT(' ',#95,'mechanical');
#94=APPLICATION_PROTOCOL_DEFINITION('international standard',
'config_control_design',1994,#95);
#95=APPLICATION_CONTEXT(
'configuration controlled 3D designs of mechanical parts and assemblies
');
#96=SHAPE_REPRESENTATION('SEEB-ALR-as-built-None',(#152),#586);
#97=GEOMETRIC_CURVE_SET('None',(#170,#136,#130));
#98=SURFACE_STYLE_USAGE(.BOTH.,#99);
#99=SURFACE_SIDE_STYLE('',(#100));
#100=SURFACE_STYLE_FILL_AREA(#101);
#101=FILL_AREA_STYLE('',(#102));
#102=FILL_AREA_STYLE_COLOUR('',#151);
#103=MANIFOLD_SOLID_BREP('',#104);
#104=CLOSED_SHELL('',(#109,#110,#111));
#105=SURFACE_OF_REVOLUTION('',#131,#106);
#106=AXIS1_PLACEMENT('',#584,#168);
#107=FACE_BOUND('',#118,.T.);
#108=FACE_BOUND('',#119,.T.);
#109=ADVANCED_FACE('',(#114),#112,.T.);
#110=ADVANCED_FACE('',(#115),#113,.F.);
#111=ADVANCED_FACE('',(#107,#108),#105,.F.);
#112=PLANE('',#154);
#113=PLANE('',#156);
#114=FACE_OUTER_BOUND('',#116,.T.);
#115=FACE_OUTER_BOUND('',#117,.T.);
#116=EDGE_LOOP('',(#120));
#117=EDGE_LOOP('',(#121));
#118=EDGE_LOOP('',(#122));
#119=EDGE_LOOP('',(#123));
#120=ORIENTED_EDGE('',*,*,#126,.T.);
#121=ORIENTED_EDGE('',*,*,#127,.F.);
#122=ORIENTED_EDGE('',*,*,#127,.T.);
#123=ORIENTED_EDGE('',*,*,#126,.F.);
#124=VERTEX_POINT('',#373);
#125=VERTEX_POINT('',#376);
#126=EDGE_CURVE('',#124,#124,#128,.T.);
#127=EDGE_CURVE('',#125,#125,#129,.T.);
#128=CIRCLE('',#153,0.69736551862195);
#129=CIRCLE('',#155,0.00517856165355868);
#130=B_SPLINE_CURVE_WITH_KNOTS('',3,(#172,#173,#174,#175,#176,#177,#178,
#179,#180,#181,#182,#183,#184,#185,#186,#187,#188,#189,#190,#191,#192,#193,
#194,#195,#196,#197,#198,#199,#200,#201,#202,#203,#204,#205,#206,#207,#208,
#209,#210,#211,#212,#213,#214,#215,#216,#217,#218,#219,#220,#221,#222,#223,
#224,#225,#226,#227,#228,#229,#230,#231,#232,#233,#234,#235,#236,#237,#238,
#239,#240,#241,#242,#243,#244,#245,#246,#247,#248,#249,#250,#251,#252,#253,
#254,#255,#256,#257,#258,#259,#260,#261,#262,#263,#264,#265,#266,#267,#268,
#269,#270,#271,#272,#273,#274,#275,#276,#277,#278,#279,#280,#281,#282,#283,
#284,#285,#286,#287,#288,#289,#290,#291,#292,#293,#294,#295,#296,#297,#298,
#299,#300,#301,#302,#303,#304,#305,#306,#307,#308,#309,#310,#311,#312,#313,
#314,#315,#316,#317,#318,#319,#320,#321,#322,#323,#324,#325,#326,#327,#328,
#329,#330,#331,#332,#333,#334,#335,#336,#337,#338,#339,#340,#341,#342,#343,
#344,#345,#346,#347,#348,#349,#350,#351,#352,#353,#354,#355,#356,#357,#358,
#359,#360,#361,#362,#363,#364,#365,#366,#367,#368,#369,#370,#371),.UNSPECIFIED.,
.F.,.F.,(4,1,1,1,1,1,1,1,1,1,1,1,1,1,1,1,1,1,1,1,1,1,1,1,1,1,1,1,1,1,1,1,
1,1,1,1,1,1,1,1,1,1,1,1,1,1,1,1,1,1,1,1,1,1,1,1,1,1,1,1,1,1,1,1,1,1,1,1,
1,1,1,1,1,1,1,1,1,1,1,1,1,1,1,1,1,1,1,1,1,1,1,1,1,1,1,1,1,1,1,1,1,1,1,1,
1,1,1,1,1,1,1,1,1,1,1,1,1,1,1,1,1,1,1,1,1,1,1,1,1,1,1,1,1,1,1,1,1,1,1,1,
1,1,1,1,1,1,1,1,1,1,1,1,1,1,1,1,1,1,1,1,1,1,1,1,1,1,1,1,1,1,1,1,1,1,1,1,
1,1,1,1,1,1,1,1,1,1,1,1,1,1,1,1,1,1,1,1,1,4),(0.,0.00326172531795958,0.00671126384019758,
0.0101597667574133,0.0136075276171674,0.0170544681557836,0.0205042754852081,
0.0239503319656491,0.0273955332580749,0.0308431075829966,0.0342864590435545,
0.0377287150824797,0.0411701379073415,0.0446092812061831,0.0480477249378763,
0.0514847425960213,0.0549176410993636,0.0583527128444523,0.0617836840439178,
0.0652156518304078,0.0686508799285641,0.0720841166883149,0.075515850956067,
0.078946855248519,0.0823773285910342,0.085807528485165,0.0892342105546556,
0.0926641682344455,0.0960940953309871,0.0995236811625709,0.102953633739842,
0.106380156682677,0.109809173639689,0.113235153298713,0.116664460639862,
0.120090071744686,0.123519244812682,0.126944660205718,0.130373376442926,
0.1337985232493,0.137223755740774,0.140648884606109,0.144077496586703,0.147502209364989,
0.150927320323348,0.154352435755258,0.157777217265555,0.16120207240097,0.164626949307955,
0.168051931459498,0.171476333444775,0.17490096955125,0.178325716627392,0.181750289367835,
0.185174732670535,0.188599184262282,0.19202035337642,0.195444981006402,0.198869131578833,
0.202293633083803,0.205714668280781,0.209138771138676,0.212563091128213,
0.215987415197299,0.21940818108642,0.222832339641105,0.226218846721348,0.229639248900918,
0.233087480741027,0.236518088570099,0.239956099153736,0.243390049080068,
0.24681767637011,0.250248269117239,0.25366187940589,0.257065300768656,0.260475700971417,
0.26389268613137,0.267299340379853,0.270702604108761,0.274123310087179,0.277557208023076,
0.280994833315522,0.284435741544814,0.287866061415818,0.291290019085592,
0.294706868272643,0.298120315297173,0.301530485580685,0.304937038496982,
0.308350459317769,0.311770509018512,0.315197899123286,0.318628044717997,
0.322062084739913,0.325482192456864,0.328899022977713,0.332315540798567,
0.335732453850115,0.339148982313135,0.342565643610499,0.345989219808988,
0.349416144020286,0.352839589505612,0.356259585312359,0.359676283012933,
0.363089415369321,0.366502420700283,0.369922579629573,0.373345848152936,
0.376772693125915,0.380192593133625,0.383605601955643,0.38702553372348,0.390441977587588,
0.39386519060901,0.397291828169105,0.400718219364146,0.404141802905491,0.407561598294806,
0.410984877285557,0.414408025107496,0.417830648289372,0.42124948353837,0.424671197112549,
0.428092773619506,0.431517580429976,0.434945708053932,0.438366804670156,
0.441784466335775,0.445201973680675,0.448619473702828,0.452036895363644,
0.455457672795515,0.458874996489294,0.462295702792626,0.465723264966087,
0.469150743683389,0.472571348817502,0.475988531069708,0.479405657880536,
0.482822775386317,0.486243311801763,0.48965697301467,0.493077473756105,0.49650137799382,
0.499928702593484,0.503352589840397,0.506769620665831,0.51018664525028,0.513607082453943,
0.517027519165922,0.520444531631081,0.523864958172673,0.527281963463817,
0.530702386494133,0.534122811291311,0.537543234116401,0.540967077398479,
0.544390921540147,0.547814767783272,0.551231772964211,0.554648780456243,
0.558069215744477,0.561489656629353,0.564906680601793,0.568330550840737,
0.571751002761744,0.575171466226561,0.578591930109306,0.582012436131963,
0.585432927912083,0.588853655517472,0.592274506600789,0.595695348265214,
0.599117159923284,0.602538892353927,0.605960448963884,0.609380872212252,
0.612801295242568,0.616221718101863,0.619642141052013,0.623062563925204,
0.626482986832599,0.629903409705789,0.633323832595013,0.636744255415828,
0.640164678237713,0.676181730541304,0.712198782847027,0.748215835176199,
0.784236307905859,0.820253360211582,0.856270412540754,0.892287464848913,
0.928304517152201,0.964321569492031,1.),.UNSPECIFIED.);
#131=B_SPLINE_CURVE_WITH_KNOTS('',3,(#378,#379,#380,#381,#382,#383,#384,
#385,#386,#387,#388,#389,#390,#391,#392,#393,#394,#395,#396,#397,#398,#399,
#400,#401,#402,#403,#404,#405,#406,#407,#408,#409,#410,#411,#412,#413,#414,
#415,#416,#417,#418,#419,#420,#421,#422,#423,#424,#425,#426,#427,#428,#429,
#430,#431,#432,#433,#434,#435,#436,#437,#438,#439,#440,#441,#442,#443,#444,
#445,#446,#447,#448,#449,#450,#451,#452,#453,#454,#455,#456,#457,#458,#459,
#460,#461,#462,#463,#464,#465,#466,#467,#468,#469,#470,#471,#472,#473,#474,
#475,#476,#477,#478,#479,#480,#481,#482,#483,#484,#485,#486,#487,#488,#489,
#490,#491,#492,#493,#494,#495,#496,#497,#498,#499,#500,#501,#502,#503,#504,
#505,#506,#507,#508,#509,#510,#511,#512,#513,#514,#515,#516,#517,#518,#519,
#520,#521,#522,#523,#524,#525,#526,#527,#528,#529,#530,#531,#532,#533,#534,
#535,#536,#537,#538,#539,#540,#541,#542,#543,#544,#545,#546,#547,#548,#549,
#550,#551,#552,#553,#554,#555,#556,#557,#558,#559,#560,#561,#562,#563,#564,
#565,#566,#567,#568,#569,#570,#571,#572,#573,#574,#575,#576,#577,#578,#579,
#580,#581,#582,#583),.UNSPECIFIED.,.F.,.F.,(4,3,1,1,1,1,1,1,1,1,1,1,1,1,
1,1,1,1,1,1,1,1,1,1,1,1,1,1,1,1,1,1,1,1,1,1,1,1,1,1,1,1,1,1,1,1,1,1,1,1,
1,1,1,1,1,1,1,1,1,1,1,1,1,1,1,1,1,1,1,1,1,1,1,1,1,1,1,1,1,1,1,1,1,1,1,1,
1,1,1,1,1,1,1,1,1,1,1,1,1,1,1,1,1,1,1,1,1,1,1,1,1,1,1,1,1,1,1,1,1,1,1,1,
1,1,1,1,1,1,1,1,1,1,1,1,1,1,1,1,1,1,1,1,1,1,1,1,1,1,1,1,1,1,1,1,1,1,1,1,
1,1,1,1,1,1,1,1,1,1,1,1,1,1,1,1,1,1,1,1,1,1,1,1,1,1,1,1,1,1,1,1,1,1,1,1,
1,1,1,1,3,4),(0.,0.0099009900990099,0.045167788105135,0.0807693011638749,
0.116370814186493,0.151972327213928,0.187573840262133,0.223175353287159,
0.25878024727369,0.294381760321895,0.329983273346921,0.365584786369841,0.368965746771896,
0.372346707172895,0.375727667641513,0.379108628094283,0.382489588580862,
0.385870549033632,0.389251509562474,0.392632470001508,0.396013430609591,
0.39939439143321,0.402776472542493,0.406158727443967,0.409541060658799,0.412922435071086,
0.416303818793596,0.41968508046278,0.42306610902748,0.426447151670397,0.429828152659581,
0.43320915323566,0.436590142401114,0.439974510446368,0.443352111212501,0.44673308946915,
0.450114062193727,0.453491646669592,0.456869228861026,0.460253573187309,
0.46363791543638,0.467022256835778,0.470403217241003,0.473784179595562,0.477165140203645,
0.480542722504013,0.483923686582861,0.487301275974475,0.490682250106372,
0.494063224724279,0.49744082609536,0.50081843363542,0.504202818492419,0.507590601044423,
0.510975002696194,0.51435604011882,0.517730316922561,0.521111389607617,0.524489082827969,
0.527866785246012,0.531244542465792,0.534625683076686,0.538013617968227,
0.54140163535307,0.544782875965964,0.548160772995463,0.551542083916266,0.554920077782528,
0.558298149106048,0.561676227667831,0.565054458769889,0.568436085192523,
0.571824661504092,0.575209955315372,0.578592056092099,0.581974292354662,
0.585353683500124,0.588736818875973,0.59212047283896,0.595504256457426,0.598884596665785,
0.602268681321155,0.605655541237498,0.60904264467651,0.612426363086753,0.615803390437433,
0.619183865450876,0.622557497390553,0.625937941010295,0.629325249469207,
0.632709022741049,0.636089722295117,0.639463350784016,0.64283710483281,0.646214383091371,
0.649594921404888,0.652978869597032,0.656366256380067,0.659750333777298,
0.663127576052643,0.666504687026194,0.669882178151161,0.673259278605327,
0.676636688151776,0.680017337084356,0.683411757580818,0.686802328581223,
0.690190175882585,0.693570767468307,0.696944806653403,0.700312057171034,
0.703682883321254,0.707056948407773,0.710434376405067,0.713818830872437,
0.717209574138457,0.720610783601776,0.724008748004453,0.727403028054184,
0.730784268345913,0.734148267624473,0.737515618305191,0.740893180706628,
0.744264234123452,0.747628389217202,0.751002615684216,0.75439362867811,0.757781710428264,
0.761176041868601,0.764574387117252,0.767965415019084,0.771373863598576,
0.774754803596474,0.778102239552732,0.781486892587345,0.784868192098571,
0.788253008737996,0.791637821344939,0.795022419325353,0.798403985037351,
0.801788977065531,0.805173622209984,0.808558738908034,0.811940436992151,
0.815325379682972,0.818710314180378,0.822095376622167,0.825480611388292,
0.82886573646504,0.832250630121715,0.835636097251107,0.839021460350179,0.842406801928866,
0.84579207073187,0.849177669603934,0.852563264054061,0.855948464918035,0.859337519998078,
0.862723132148583,0.866108846729661,0.869494476614214,0.872883634748031,
0.876269530120483,0.879659139814499,0.883045228640753,0.886434971058773,
0.889821424187111,0.89321087957124,0.896597869715364,0.899988249925228,0.903378267620656,
0.906768622643769,0.910159007897282,0.913546155332171,0.916936780005527,
0.920327674972414,0.923719094763512,0.927111236107972,0.93050486260974,0.933900457475259,
0.937292829644282,0.940684216724197,0.94407965704054,0.947472949188463,0.950870312967293,
0.954269086366643,0.957668551262031,0.961070269383879,0.964472811106756,
0.967876435613066,0.971284234263317,0.974689687259442,0.978095985577028,
0.981505991468955,0.984913163645078,0.988321146678054,0.991729863207157,
0.995139603393204,0.998363697230916,1.),.UNSPECIFIED.);
#132=CURVE_STYLE('',#134,POSITIVE_LENGTH_MEASURE(0.352777777777778),#149);
#133=CURVE_STYLE('',#135,POSITIVE_LENGTH_MEASURE(0.352777777777778),#150);
#134=DRAUGHTING_PRE_DEFINED_CURVE_FONT('continuous');
#135=DRAUGHTING_PRE_DEFINED_CURVE_FONT('continuous');
#136=TRIMMED_CURVE('',#137,(PARAMETER_VALUE(0.)),(PARAMETER_VALUE(1.)),.T.,
.PARAMETER.);
#137=LINE('',#171,#138);
#138=VECTOR('',#159,29.2245);
#139=PRESENTATION_LAYER_ASSIGNMENT('1','Layer 1',(#170,#136,#130,#103));
#140=STYLED_ITEM('',(#144),#170);
#141=STYLED_ITEM('',(#145),#136);
#142=STYLED_ITEM('',(#146),#130);
#143=STYLED_ITEM('',(#147),#103);
#144=PRESENTATION_STYLE_ASSIGNMENT((#148));
#145=PRESENTATION_STYLE_ASSIGNMENT((#132));
#146=PRESENTATION_STYLE_ASSIGNMENT((#133));
#147=PRESENTATION_STYLE_ASSIGNMENT((#98));
#148=POINT_STYLE('',MARKER_TYPE(.PLUS.),POSITIVE_LENGTH_MEASURE(3.),#149);
#149=COLOUR_RGB('Dark Hard Blue',0.,0.,0.8);
#150=COLOUR_RGB('Light Hard Red',1.,0.2,0.2);
#151=COLOUR_RGB('Light Gray',0.6,0.6,0.6);
#152=AXIS2_PLACEMENT_3D('',#169,#157,#158);
#153=AXIS2_PLACEMENT_3D('',#372,#160,#161);
#154=AXIS2_PLACEMENT_3D('',#374,#162,#163);
#155=AXIS2_PLACEMENT_3D('',#375,#164,#165);
#156=AXIS2_PLACEMENT_3D('',#377,#166,#167);
#157=DIRECTION('',(0.,0.,1.));
#158=DIRECTION('',(1.,0.,0.));
#159=DIRECTION('',(1.,0.,0.));
#160=DIRECTION('',(1.,0.,0.));
#161=DIRECTION('',(0.,0.,-1.));
#162=DIRECTION('',(1.,0.,0.));
#163=DIRECTION('',(0.,0.,-1.));
#164=DIRECTION('',(1.,0.,0.));
#165=DIRECTION('',(0.,0.,-1.));
#166=DIRECTION('',(1.,0.,0.));
#167=DIRECTION('',(0.,0.,-1.));
#168=DIRECTION('',(1.,0.,0.));
#169=CARTESIAN_POINT('',(0.,0.,0.));
#170=CARTESIAN_POINT('',(0.,0.,0.));
#171=CARTESIAN_POINT('',(0.,0.,0.));
#172=CARTESIAN_POINT('',(0.00939999999999999,0.00578,0.));
#173=CARTESIAN_POINT('',(0.0409594540625032,0.00957621317318922,0.));
#174=CARTESIAN_POINT('',(0.105909451929386,0.0172674672174135,0.));
#175=CARTESIAN_POINT('',(0.204285523983612,0.0284638828691151,0.));
#176=CARTESIAN_POINT('',(0.304489639640936,0.0396252726161948,0.));
#177=CARTESIAN_POINT('',(0.404687625312064,0.0506124771701901,0.));
#178=CARTESIAN_POINT('',(0.504924815058133,0.0613559760567905,0.));
#179=CARTESIAN_POINT('',(0.605163283395999,0.0719296105839243,0.));
#180=CARTESIAN_POINT('',(0.705387081613349,0.0824808241029206,0.));
#181=CARTESIAN_POINT('',(0.805617016596116,0.0927645951285131,0.));
#182=CARTESIAN_POINT('',(0.905856674704748,0.102687125552374,0.));
#183=CARTESIAN_POINT('',(1.00608197992755,0.112464969933315,0.));
#184=CARTESIAN_POINT('',(1.10629197052632,0.121766167310277,0.));
#185=CARTESIAN_POINT('',(1.20646079220952,0.13108205869493,0.));
#186=CARTESIAN_POINT('',(1.30669506323524,0.139215805817268,0.));
#187=CARTESIAN_POINT('',(1.40687539750277,0.147472889601987,0.));
#188=CARTESIAN_POINT('',(1.50705953315355,0.154906510420777,0.));
#189=CARTESIAN_POINT('',(1.60721349772919,0.162295864246411,0.));
#190=CARTESIAN_POINT('',(1.70735445624459,0.169039828875508,0.));
#191=CARTESIAN_POINT('',(1.80752035542129,0.175258780332322,0.));
#192=CARTESIAN_POINT('',(1.9076237620832,0.18243438204876,0.));
#193=CARTESIAN_POINT('',(2.00779681347774,0.188923271197001,0.));
#194=CARTESIAN_POINT('',(2.10787059664165,0.196778734962321,0.));
#195=CARTESIAN_POINT('',(2.20799212433491,0.203387415775876,0.));
#196=CARTESIAN_POINT('',(2.30809144106998,0.209902044547609,0.));
#197=CARTESIAN_POINT('',(2.40819620544821,0.21610148376185,0.));
#198=CARTESIAN_POINT('',(2.50826573430004,0.222183478455733,0.));
#199=CARTESIAN_POINT('',(2.60833052467651,0.228261821836814,0.));
#200=CARTESIAN_POINT('',(2.70840070245345,0.234205536629953,0.));
#201=CARTESIAN_POINT('',(2.80849312913505,0.240252599017501,0.));
#202=CARTESIAN_POINT('',(2.90860681140901,0.245937890046103,0.));
#203=CARTESIAN_POINT('',(3.00866791781502,0.251950107121519,0.));
#204=CARTESIAN_POINT('',(3.10871581300816,0.258099194315035,0.));
#205=CARTESIAN_POINT('',(3.2087757702684,0.263359195829307,0.));
#206=CARTESIAN_POINT('',(3.30883087216093,0.269185722224467,0.));
#207=CARTESIAN_POINT('',(3.40886186120839,0.27485217514096,0.));
#208=CARTESIAN_POINT('',(3.50893696067703,0.28028532827046,0.));
#209=CARTESIAN_POINT('',(3.60896038165422,0.285965957818754,0.));
#210=CARTESIAN_POINT('',(3.70903234054256,0.291315416790972,0.));
#211=CARTESIAN_POINT('',(3.80906380655083,0.2966856009975,0.));
#212=CARTESIAN_POINT('',(3.90910223010091,0.301891093758836,0.));
#213=CARTESIAN_POINT('',(4.00909736322932,0.307253470651482,0.));
#214=CARTESIAN_POINT('',(4.10913599039528,0.312431450974261,0.));
#215=CARTESIAN_POINT('',(4.20915700053244,0.317851186432003,0.));
#216=CARTESIAN_POINT('',(4.30920813219598,0.322682216797682,0.));
#217=CARTESIAN_POINT('',(4.40919968702214,0.328009493595198,0.));
#218=CARTESIAN_POINT('',(4.50919404973006,0.333294859672962,0.));
#219=CARTESIAN_POINT('',(4.60920212475395,0.338264939114021,0.));
#220=CARTESIAN_POINT('',(4.70919942909825,0.343400486678597,0.));
#221=CARTESIAN_POINT('',(4.80920338304708,0.348443278112027,0.));
#222=CARTESIAN_POINT('',(4.90918877456938,0.353766482605177,0.));
#223=CARTESIAN_POINT('',(5.00920529362992,0.358418980423089,0.));
#224=CARTESIAN_POINT('',(5.10920143571137,0.363438158584555,0.));
#225=CARTESIAN_POINT('',(5.20919710596005,0.368498794802061,0.));
#226=CARTESIAN_POINT('',(5.30919808260561,0.373416062317819,0.));
#227=CARTESIAN_POINT('',(5.40920012791971,0.378251446327574,0.));
#228=CARTESIAN_POINT('',(5.50916875898405,0.383091571795452,0.));
#229=CARTESIAN_POINT('',(5.60913492422222,0.388018004035786,0.));
#230=CARTESIAN_POINT('',(5.70909058776839,0.393101399391544,0.));
#231=CARTESIAN_POINT('',(5.8091072959051,0.397591707408666,0.));
#232=CARTESIAN_POINT('',(5.90906575840081,0.40256601527744,0.));
#233=CARTESIAN_POINT('',(6.00902677067107,0.407479188513474,0.));
#234=CARTESIAN_POINT('',(6.10900456900402,0.412000531785684,0.));
#235=CARTESIAN_POINT('',(6.20899965411395,0.416835729153849,0.));
#236=CARTESIAN_POINT('',(6.30896456989622,0.421620009497795,0.));
#237=CARTESIAN_POINT('',(6.40893267355779,0.426304299790013,0.));
#238=CARTESIAN_POINT('',(6.50853475291098,0.430924943458829,0.));
#239=CARTESIAN_POINT('',(6.6081256449045,0.435712138700826,0.));
#240=CARTESIAN_POINT('',(6.70797701628224,0.43993978631549,0.));
#241=CARTESIAN_POINT('',(6.80822122029508,0.444981887530802,0.));
#242=CARTESIAN_POINT('',(6.9086800360194,0.449089484197277,0.));
#243=CARTESIAN_POINT('',(7.00895196565258,0.45423438429905,0.));
#244=CARTESIAN_POINT('',(7.1092458637419,0.45826154923083,0.));
#245=CARTESIAN_POINT('',(7.2094230237599,0.463264861589368,0.));
#246=CARTESIAN_POINT('',(7.30943722891117,0.467488261457635,0.));
#247=CARTESIAN_POINT('',(7.40920035497036,0.472042924112456,0.));
#248=CARTESIAN_POINT('',(7.50876961415355,0.476529063001986,0.));
#249=CARTESIAN_POINT('',(7.60836166939924,0.48123633689833,0.));
#250=CARTESIAN_POINT('',(7.70799980562715,0.485624858000707,0.));
#251=CARTESIAN_POINT('',(7.80756614900379,0.490059400578261,0.));
#252=CARTESIAN_POINT('',(7.90717377093523,0.494385271926579,0.));
#253=CARTESIAN_POINT('',(8.00702277488197,0.499249089033022,0.));
#254=CARTESIAN_POINT('',(8.10724022070231,0.503373533971214,0.));
#255=CARTESIAN_POINT('',(8.20763078220556,0.508034669697774,0.));
#256=CARTESIAN_POINT('',(8.30799357347252,0.512540059697343,0.));
#257=CARTESIAN_POINT('',(8.40824327360485,0.516578299112268,0.));
#258=CARTESIAN_POINT('',(8.50822743303772,0.521320293142673,0.));
#259=CARTESIAN_POINT('',(8.60806750545829,0.52559930322273,0.));
#260=CARTESIAN_POINT('',(8.70776956048129,0.529958095604606,0.));
#261=CARTESIAN_POINT('',(8.8073626043951,0.534510271781673,0.));
#262=CARTESIAN_POINT('',(8.90696846405709,0.538766315531223,0.));
#263=CARTESIAN_POINT('',(9.00666091801624,0.543246378091684,0.));
#264=CARTESIAN_POINT('',(9.10657800605324,0.547233194680619,0.));
#265=CARTESIAN_POINT('',(9.20661868129794,0.552126945283581,0.));
#266=CARTESIAN_POINT('',(9.30684444252119,0.555897071351125,0.));
#267=CARTESIAN_POINT('',(9.40696018747463,0.560575634416915,0.));
#268=CARTESIAN_POINT('',(9.5069712901838,0.564669240400424,0.));
#269=CARTESIAN_POINT('',(9.60679259045064,0.569202070491832,0.));
#270=CARTESIAN_POINT('',(9.7066089794212,0.573120277744176,0.));
#271=CARTESIAN_POINT('',(9.80639163983215,0.57775767962507,0.));
#272=CARTESIAN_POINT('',(9.90620339104661,0.581748101257388,0.));
#273=CARTESIAN_POINT('',(10.0060674311604,0.586038033257622,0.));
#274=CARTESIAN_POINT('',(10.1060320575669,0.590346504945026,0.));
#275=CARTESIAN_POINT('',(10.2060659788065,0.594582162875732,0.));
#276=CARTESIAN_POINT('',(10.3060659377428,0.598794795165155,0.));
#277=CARTESIAN_POINT('',(10.4059691611123,0.602936072655947,0.));
#278=CARTESIAN_POINT('',(10.5057643274396,0.607253498472312,0.));
#279=CARTESIAN_POINT('',(10.6054971817097,0.61143314415434,0.));
#280=CARTESIAN_POINT('',(10.7052732324128,0.615384876126604,0.));
#281=CARTESIAN_POINT('',(10.8051264937618,0.619854223570104,0.));
#282=CARTESIAN_POINT('',(10.9051372066444,0.623786626218937,0.));
#283=CARTESIAN_POINT('',(11.005131112856,0.62806257514526,0.));
#284=CARTESIAN_POINT('',(11.105032707765,0.632152006583335,0.));
#285=CARTESIAN_POINT('',(11.204868132275,0.636210210241739,0.));
#286=CARTESIAN_POINT('',(11.3046655672927,0.640372438783078,0.));
#287=CARTESIAN_POINT('',(11.4045651858925,0.644470716087993,0.));
#288=CARTESIAN_POINT('',(11.5045344719307,0.648463313419249,0.));
#289=CARTESIAN_POINT('',(11.6045938631676,0.652628081901644,0.));
#290=CARTESIAN_POINT('',(11.7046792820462,0.65623410964508,0.));
#291=CARTESIAN_POINT('',(11.804658359516,0.660810877162948,0.));
#292=CARTESIAN_POINT('',(11.9046356822263,0.664696522409063,0.));
#293=CARTESIAN_POINT('',(12.0045981972105,0.668836077410052,0.));
#294=CARTESIAN_POINT('',(12.104591399763,0.672909997232499,0.));
#295=CARTESIAN_POINT('',(12.2045622704698,0.676426226547138,0.));
#296=CARTESIAN_POINT('',(12.3045241919607,0.679806956309834,0.));
#297=CARTESIAN_POINT('',(12.404498996568,0.682415545012472,0.));
#298=CARTESIAN_POINT('',(12.504529984924,0.685082187678997,0.));
#299=CARTESIAN_POINT('',(12.6046323777664,0.687396900200933,0.));
#300=CARTESIAN_POINT('',(12.7047299523842,0.689719595832819,0.));
#301=CARTESIAN_POINT('',(12.8047671647127,0.691599768728366,0.));
#302=CARTESIAN_POINT('',(12.9046970984348,0.693670381657227,0.));
#303=CARTESIAN_POINT('',(13.0046003768202,0.695287815761433,0.));
#304=CARTESIAN_POINT('',(13.1044986275524,0.697053309001054,0.));
#305=CARTESIAN_POINT('',(13.2044323960913,0.69860436578681,0.));
#306=CARTESIAN_POINT('',(13.3043662675617,0.700027142654968,0.));
#307=CARTESIAN_POINT('',(13.4043326125797,0.701419670464757,0.));
#308=CARTESIAN_POINT('',(13.5043671692927,0.702652559010012,0.));
#309=CARTESIAN_POINT('',(13.604498510445,0.704056648792182,0.));
#310=CARTESIAN_POINT('',(13.7046329208643,0.705135990028593,0.));
#311=CARTESIAN_POINT('',(13.8046667626397,0.706144156531641,0.));
#312=CARTESIAN_POINT('',(13.9045990177148,0.707229258665318,0.));
#313=CARTESIAN_POINT('',(14.0044999385549,0.708033410138277,0.));
#314=CARTESIAN_POINT('',(14.1044333705099,0.708847362661953,0.));
#315=CARTESIAN_POINT('',(14.2043327116309,0.709708515918833,0.));
#316=CARTESIAN_POINT('',(14.3042667555764,0.710335786136059,0.));
#317=CARTESIAN_POINT('',(14.4042329997696,0.711051290289962,0.));
#318=CARTESIAN_POINT('',(14.5043334035967,0.7116111964571,0.));
#319=CARTESIAN_POINT('',(14.6044663811311,0.712240284417963,0.));
#320=CARTESIAN_POINT('',(14.70453310185,0.712746208153122,0.));
#321=CARTESIAN_POINT('',(14.8044999282233,0.713137615452266,0.));
#322=CARTESIAN_POINT('',(14.9044331986174,0.713513191776215,0.));
#323=CARTESIAN_POINT('',(15.0044000114711,0.713780365784121,0.));
#324=CARTESIAN_POINT('',(15.1043666086744,0.714075335411416,0.));
#325=CARTESIAN_POINT('',(15.2043332271107,0.714337728696599,0.));
#326=CARTESIAN_POINT('',(15.304266670974,0.714449060495324,0.));
#327=CARTESIAN_POINT('',(15.4042332780154,0.714625788948293,0.));
#328=CARTESIAN_POINT('',(15.5042000429972,0.714587886705932,0.));
#329=CARTESIAN_POINT('',(15.6041999585045,0.714772651652597,0.));
#330=CARTESIAN_POINT('',(15.7042333393479,0.714716487913786,0.));
#331=CARTESIAN_POINT('',(15.8043000089515,0.714726342673889,0.));
#332=CARTESIAN_POINT('',(15.9044000376292,0.714653144639895,0.));
#333=CARTESIAN_POINT('',(16.0044333235632,0.714501179878323,0.));
#334=CARTESIAN_POINT('',(16.1044000300977,0.714387754983407,0.));
#335=CARTESIAN_POINT('',(16.2043334501229,0.714227822155177,0.));
#336=CARTESIAN_POINT('',(16.3043000822257,0.713945438855321,0.));
#337=CARTESIAN_POINT('',(16.4042667088838,0.713615436816209,0.));
#338=CARTESIAN_POINT('',(16.5042667633473,0.713268371370262,0.));
#339=CARTESIAN_POINT('',(16.6042666593341,0.712854554405075,0.));
#340=CARTESIAN_POINT('',(16.7043002428033,0.71247406044882,0.));
#341=CARTESIAN_POINT('',(16.8042998484193,0.711934326864678,0.));
#342=CARTESIAN_POINT('',(16.9043009151938,0.711548629769448,0.));
#343=CARTESIAN_POINT('',(17.0042992307128,0.710691137363425,0.));
#344=CARTESIAN_POINT('',(17.1043038992462,0.710321814727698,0.));
#345=CARTESIAN_POINT('',(17.2043023234464,0.708846438115306,0.));
#346=CARTESIAN_POINT('',(17.3042974354889,0.707107265129051,0.));
#347=CARTESIAN_POINT('',(17.4043179481045,0.70604438899201,0.));
#348=CARTESIAN_POINT('',(17.5042960616194,0.702643729815386,0.));
#349=CARTESIAN_POINT('',(17.6043001381676,0.700210569654263,0.));
#350=CARTESIAN_POINT('',(17.7042795842951,0.696739747570402,0.));
#351=CARTESIAN_POINT('',(17.8043025071001,0.697606505770542,0.));
#352=CARTESIAN_POINT('',(17.9042993244079,0.697309133586807,0.));
#353=CARTESIAN_POINT('',(18.0043001823623,0.697421959900314,0.));
#354=CARTESIAN_POINT('',(18.1042999499243,0.697358026812051,0.));
#355=CARTESIAN_POINT('',(18.2043000139092,0.6973359328531,0.));
#356=CARTESIAN_POINT('',(18.3042999956891,0.697383241775851,0.));
#357=CARTESIAN_POINT('',(18.4043000014909,0.697351100043426,0.));
#358=CARTESIAN_POINT('',(18.5042999984412,0.697327358050405,0.));
#359=CARTESIAN_POINT('',(18.6043000002445,0.697334467755306,0.));
#360=CARTESIAN_POINT('',(19.0219666657637,0.697314850674629,0.));
#361=CARTESIAN_POINT('',(19.7573000003587,0.697338578132527,0.));
#362=CARTESIAN_POINT('',(20.8103000003637,0.697291087143112,0.));
#363=CARTESIAN_POINT('',(21.8633333329227,0.697372075858698,0.));
#364=CARTESIAN_POINT('',(22.9163666666397,0.697335615509829,0.));
#365=CARTESIAN_POINT('',(23.9694000004533,0.697310467773452,0.));
#366=CARTESIAN_POINT('',(25.0223999995979,0.69737251419242,0.));
#367=CARTESIAN_POINT('',(26.0753999999028,0.697389475456826,0.));
#368=CARTESIAN_POINT('',(27.1284000006097,0.697364583980265,0.));
#369=CARTESIAN_POINT('',(28.1781000003746,0.697461882738731,0.));
#370=CARTESIAN_POINT('',(28.8768000001345,0.697409005998639,0.));
#371=CARTESIAN_POINT('',(29.2245,0.69737,0.));
#372=CARTESIAN_POINT('',(29.2644470646,0.,0.));
#373=CARTESIAN_POINT('',(29.2644470646,0.,-0.69736551862195));
#374=CARTESIAN_POINT('',(29.2644470646,0.,0.));
#375=CARTESIAN_POINT('',(0.00440000000000064,0.,0.));
#376=CARTESIAN_POINT('',(0.00440000000000064,0.,-0.00517856165355868));
#377=CARTESIAN_POINT('',(0.00440000000000018,0.,0.));
#378=CARTESIAN_POINT('',(29.5173454907215,0.697337147739957,0.));
#379=CARTESIAN_POINT('',(29.4197303271477,0.697348098493305,0.));
#380=CARTESIAN_POINT('',(29.3221151635738,0.697359049246652,0.));
#381=CARTESIAN_POINT('',(29.2245,0.69737,0.));
#382=CARTESIAN_POINT('',(28.8768000001345,0.697409005998639,0.));
#383=CARTESIAN_POINT('',(28.1781000003746,0.697461882738731,0.));
#384=CARTESIAN_POINT('',(27.1284000006097,0.697364583980265,0.));
#385=CARTESIAN_POINT('',(26.0753999999028,0.697389475456826,0.));
#386=CARTESIAN_POINT('',(25.0223999995979,0.69737251419242,0.));
#387=CARTESIAN_POINT('',(23.9694000004533,0.697310467773452,0.));
#388=CARTESIAN_POINT('',(22.9163666666397,0.697335615509829,0.));
#389=CARTESIAN_POINT('',(21.8633333329227,0.697372075858698,0.));
#390=CARTESIAN_POINT('',(20.8103000003637,0.697291087143112,0.));
#391=CARTESIAN_POINT('',(19.7573000003587,0.697338578132527,0.));
#392=CARTESIAN_POINT('',(19.0219666657637,0.697314850674629,0.));
#393=CARTESIAN_POINT('',(18.6043000002445,0.697334467755306,0.));
#394=CARTESIAN_POINT('',(18.5042999984412,0.697327358050405,0.));
#395=CARTESIAN_POINT('',(18.4043000014909,0.697351100043426,0.));
#396=CARTESIAN_POINT('',(18.3042999956891,0.697383241775851,0.));
#397=CARTESIAN_POINT('',(18.2043000139092,0.6973359328531,0.));
#398=CARTESIAN_POINT('',(18.1042999499243,0.697358026812051,0.));
#399=CARTESIAN_POINT('',(18.0043001823623,0.697421959900314,0.));
#400=CARTESIAN_POINT('',(17.9042993244079,0.697309133586807,0.));
#401=CARTESIAN_POINT('',(17.8043025071001,0.697606505770542,0.));
#402=CARTESIAN_POINT('',(17.7042795842951,0.696739747570402,0.));
#403=CARTESIAN_POINT('',(17.6043001381676,0.700210569654263,0.));
#404=CARTESIAN_POINT('',(17.5042960616194,0.702643729815386,0.));
#405=CARTESIAN_POINT('',(17.4043179481045,0.706044388992009,0.));
#406=CARTESIAN_POINT('',(17.3042974354889,0.707107265129051,0.));
#407=CARTESIAN_POINT('',(17.2043023234464,0.708846438115306,0.));
#408=CARTESIAN_POINT('',(17.1043038992462,0.710321814727698,0.));
#409=CARTESIAN_POINT('',(17.0042992307128,0.710691137363425,0.));
#410=CARTESIAN_POINT('',(16.9043009151938,0.711548629769448,0.));
#411=CARTESIAN_POINT('',(16.8042998484193,0.711934326864678,0.));
#412=CARTESIAN_POINT('',(16.7043002428033,0.71247406044882,0.));
#413=CARTESIAN_POINT('',(16.6042666593341,0.712854554405075,0.));
#414=CARTESIAN_POINT('',(16.5042667633473,0.713268371370262,0.));
#415=CARTESIAN_POINT('',(16.4042667088838,0.713615436816209,0.));
#416=CARTESIAN_POINT('',(16.3043000822257,0.713945438855321,0.));
#417=CARTESIAN_POINT('',(16.2043334501229,0.714227822155177,0.));
#418=CARTESIAN_POINT('',(16.1044000300977,0.714387754983407,0.));
#419=CARTESIAN_POINT('',(16.0044333235632,0.714501179878323,0.));
#420=CARTESIAN_POINT('',(15.9044000376292,0.714653144639895,0.));
#421=CARTESIAN_POINT('',(15.8043000089515,0.714726342673889,0.));
#422=CARTESIAN_POINT('',(15.7042333393479,0.714716487913786,0.));
#423=CARTESIAN_POINT('',(15.6041999585045,0.714772651652597,0.));
#424=CARTESIAN_POINT('',(15.5042000429972,0.714587886705932,0.));
#425=CARTESIAN_POINT('',(15.4042332780154,0.714625788948293,0.));
#426=CARTESIAN_POINT('',(15.304266670974,0.714449060495323,0.));
#427=CARTESIAN_POINT('',(15.2043332271107,0.714337728696599,0.));
#428=CARTESIAN_POINT('',(15.1043666086744,0.714075335411416,0.));
#429=CARTESIAN_POINT('',(15.0044000114711,0.713780365784121,0.));
#430=CARTESIAN_POINT('',(14.9044331986174,0.713513191776215,0.));
#431=CARTESIAN_POINT('',(14.8044999282233,0.713137615452266,0.));
#432=CARTESIAN_POINT('',(14.70453310185,0.712746208153122,0.));
#433=CARTESIAN_POINT('',(14.6044663811311,0.712240284417963,0.));
#434=CARTESIAN_POINT('',(14.5043334035967,0.7116111964571,0.));
#435=CARTESIAN_POINT('',(14.4042329997696,0.711051290289962,0.));
#436=CARTESIAN_POINT('',(14.3042667555764,0.710335786136059,0.));
#437=CARTESIAN_POINT('',(14.2043327116309,0.709708515918833,0.));
#438=CARTESIAN_POINT('',(14.1044333705099,0.708847362661953,0.));
#439=CARTESIAN_POINT('',(14.0044999385549,0.708033410138277,0.));
#440=CARTESIAN_POINT('',(13.9045990177148,0.707229258665318,0.));
#441=CARTESIAN_POINT('',(13.8046667626397,0.706144156531641,0.));
#442=CARTESIAN_POINT('',(13.7046329208643,0.705135990028593,0.));
#443=CARTESIAN_POINT('',(13.604498510445,0.704056648792182,0.));
#444=CARTESIAN_POINT('',(13.5043671692927,0.702652559010012,0.));
#445=CARTESIAN_POINT('',(13.4043326125797,0.701419670464757,0.));
#446=CARTESIAN_POINT('',(13.3043662675617,0.700027142654968,0.));
#447=CARTESIAN_POINT('',(13.2044323960913,0.69860436578681,0.));
#448=CARTESIAN_POINT('',(13.1044986275524,0.697053309001054,0.));
#449=CARTESIAN_POINT('',(13.0046003768202,0.695287815761433,0.));
#450=CARTESIAN_POINT('',(12.9046970984348,0.693670381657227,0.));
#451=CARTESIAN_POINT('',(12.8047671647127,0.691599768728366,0.));
#452=CARTESIAN_POINT('',(12.7047299523842,0.689719595832819,0.));
#453=CARTESIAN_POINT('',(12.6046323777664,0.687396900200933,0.));
#454=CARTESIAN_POINT('',(12.504529984924,0.685082187678997,0.));
#455=CARTESIAN_POINT('',(12.404498996568,0.682415545012471,0.));
#456=CARTESIAN_POINT('',(12.3045241919607,0.679806956309834,0.));
#457=CARTESIAN_POINT('',(12.2045622704698,0.676426226547138,0.));
#458=CARTESIAN_POINT('',(12.104591399763,0.672909997232499,0.));
#459=CARTESIAN_POINT('',(12.0045981972105,0.668836077410052,0.));
#460=CARTESIAN_POINT('',(11.9046356822263,0.664696522409063,0.));
#461=CARTESIAN_POINT('',(11.804658359516,0.660810877162948,0.));
#462=CARTESIAN_POINT('',(11.7046792820462,0.65623410964508,0.));
#463=CARTESIAN_POINT('',(11.6045938631676,0.652628081901644,0.));
#464=CARTESIAN_POINT('',(11.5045344719307,0.648463313419249,0.));
#465=CARTESIAN_POINT('',(11.4045651858925,0.644470716087993,0.));
#466=CARTESIAN_POINT('',(11.3046655672927,0.640372438783078,0.));
#467=CARTESIAN_POINT('',(11.204868132275,0.636210210241739,0.));
#468=CARTESIAN_POINT('',(11.105032707765,0.632152006583335,0.));
#469=CARTESIAN_POINT('',(11.005131112856,0.62806257514526,0.));
#470=CARTESIAN_POINT('',(10.9051372066444,0.623786626218937,0.));
#471=CARTESIAN_POINT('',(10.8051264937618,0.619854223570104,0.));
#472=CARTESIAN_POINT('',(10.7052732324128,0.615384876126604,0.));
#473=CARTESIAN_POINT('',(10.6054971817097,0.61143314415434,0.));
#474=CARTESIAN_POINT('',(10.5057643274396,0.607253498472312,0.));
#475=CARTESIAN_POINT('',(10.4059691611123,0.602936072655947,0.));
#476=CARTESIAN_POINT('',(10.3060659377428,0.598794795165155,0.));
#477=CARTESIAN_POINT('',(10.2060659788065,0.594582162875732,0.));
#478=CARTESIAN_POINT('',(10.1060320575669,0.590346504945026,0.));
#479=CARTESIAN_POINT('',(10.0060674311604,0.586038033257622,0.));
#480=CARTESIAN_POINT('',(9.90620339104661,0.581748101257388,0.));
#481=CARTESIAN_POINT('',(9.80639163983215,0.57775767962507,0.));
#482=CARTESIAN_POINT('',(9.7066089794212,0.573120277744176,0.));
#483=CARTESIAN_POINT('',(9.60679259045064,0.569202070491832,0.));
#484=CARTESIAN_POINT('',(9.5069712901838,0.564669240400424,0.));
#485=CARTESIAN_POINT('',(9.40696018747463,0.560575634416915,0.));
#486=CARTESIAN_POINT('',(9.30684444252119,0.555897071351125,0.));
#487=CARTESIAN_POINT('',(9.20661868129794,0.552126945283581,0.));
#488=CARTESIAN_POINT('',(9.10657800605324,0.547233194680619,0.));
#489=CARTESIAN_POINT('',(9.00666091801624,0.543246378091684,0.));
#490=CARTESIAN_POINT('',(8.90696846405709,0.538766315531223,0.));
#491=CARTESIAN_POINT('',(8.8073626043951,0.534510271781673,0.));
#492=CARTESIAN_POINT('',(8.70776956048129,0.529958095604606,0.));
#493=CARTESIAN_POINT('',(8.60806750545829,0.52559930322273,0.));
#494=CARTESIAN_POINT('',(8.50822743303772,0.521320293142673,0.));
#495=CARTESIAN_POINT('',(8.40824327360485,0.516578299112268,0.));
#496=CARTESIAN_POINT('',(8.30799357347252,0.512540059697343,0.));
#497=CARTESIAN_POINT('',(8.20763078220556,0.508034669697774,0.));
#498=CARTESIAN_POINT('',(8.10724022070231,0.503373533971214,0.));
#499=CARTESIAN_POINT('',(8.00702277488197,0.499249089033022,0.));
#500=CARTESIAN_POINT('',(7.90717377093523,0.494385271926579,0.));
#501=CARTESIAN_POINT('',(7.80756614900379,0.490059400578261,0.));
#502=CARTESIAN_POINT('',(7.70799980562715,0.485624858000707,0.));
#503=CARTESIAN_POINT('',(7.60836166939924,0.48123633689833,0.));
#504=CARTESIAN_POINT('',(7.50876961415355,0.476529063001986,0.));
#505=CARTESIAN_POINT('',(7.40920035497036,0.472042924112456,0.));
#506=CARTESIAN_POINT('',(7.30943722891116,0.467488261457635,0.));
#507=CARTESIAN_POINT('',(7.2094230237599,0.463264861589368,0.));
#508=CARTESIAN_POINT('',(7.1092458637419,0.45826154923083,0.));
#509=CARTESIAN_POINT('',(7.00895196565258,0.45423438429905,0.));
#510=CARTESIAN_POINT('',(6.9086800360194,0.449089484197277,0.));
#511=CARTESIAN_POINT('',(6.80822122029508,0.444981887530802,0.));
#512=CARTESIAN_POINT('',(6.70797701628224,0.43993978631549,0.));
#513=CARTESIAN_POINT('',(6.6081256449045,0.435712138700826,0.));
#514=CARTESIAN_POINT('',(6.50853475291098,0.430924943458829,0.));
#515=CARTESIAN_POINT('',(6.40893267355779,0.426304299790013,0.));
#516=CARTESIAN_POINT('',(6.30896456989622,0.421620009497795,0.));
#517=CARTESIAN_POINT('',(6.20899965411395,0.416835729153849,0.));
#518=CARTESIAN_POINT('',(6.10900456900402,0.412000531785684,0.));
#519=CARTESIAN_POINT('',(6.00902677067107,0.407479188513474,0.));
#520=CARTESIAN_POINT('',(5.90906575840081,0.40256601527744,0.));
#521=CARTESIAN_POINT('',(5.8091072959051,0.397591707408666,0.));
#522=CARTESIAN_POINT('',(5.70909058776839,0.393101399391544,0.));
#523=CARTESIAN_POINT('',(5.60913492422222,0.388018004035786,0.));
#524=CARTESIAN_POINT('',(5.50916875898405,0.383091571795452,0.));
#525=CARTESIAN_POINT('',(5.40920012791971,0.378251446327574,0.));
#526=CARTESIAN_POINT('',(5.30919808260561,0.373416062317819,0.));
#527=CARTESIAN_POINT('',(5.20919710596005,0.368498794802061,0.));
#528=CARTESIAN_POINT('',(5.10920143571137,0.363438158584555,0.));
#529=CARTESIAN_POINT('',(5.00920529362992,0.358418980423089,0.));
#530=CARTESIAN_POINT('',(4.90918877456938,0.353766482605177,0.));
#531=CARTESIAN_POINT('',(4.80920338304708,0.348443278112027,0.));
#532=CARTESIAN_POINT('',(4.70919942909825,0.343400486678597,0.));
#533=CARTESIAN_POINT('',(4.60920212475395,0.338264939114021,0.));
#534=CARTESIAN_POINT('',(4.50919404973006,0.333294859672962,0.));
#535=CARTESIAN_POINT('',(4.40919968702214,0.328009493595198,0.));
#536=CARTESIAN_POINT('',(4.30920813219598,0.322682216797682,0.));
#537=CARTESIAN_POINT('',(4.20915700053244,0.317851186432003,0.));
#538=CARTESIAN_POINT('',(4.10913599039528,0.312431450974261,0.));
#539=CARTESIAN_POINT('',(4.00909736322932,0.307253470651482,0.));
#540=CARTESIAN_POINT('',(3.90910223010091,0.301891093758836,0.));
#541=CARTESIAN_POINT('',(3.80906380655083,0.2966856009975,0.));
#542=CARTESIAN_POINT('',(3.70903234054256,0.291315416790972,0.));
#543=CARTESIAN_POINT('',(3.60896038165422,0.285965957818754,0.));
#544=CARTESIAN_POINT('',(3.50893696067703,0.28028532827046,0.));
#545=CARTESIAN_POINT('',(3.40886186120839,0.27485217514096,0.));
#546=CARTESIAN_POINT('',(3.30883087216093,0.269185722224467,0.));
#547=CARTESIAN_POINT('',(3.2087757702684,0.263359195829307,0.));
#548=CARTESIAN_POINT('',(3.10871581300816,0.258099194315035,0.));
#549=CARTESIAN_POINT('',(3.00866791781502,0.251950107121519,0.));
#550=CARTESIAN_POINT('',(2.90860681140901,0.245937890046103,0.));
#551=CARTESIAN_POINT('',(2.80849312913505,0.240252599017501,0.));
#552=CARTESIAN_POINT('',(2.70840070245345,0.234205536629953,0.));
#553=CARTESIAN_POINT('',(2.60833052467651,0.228261821836814,0.));
#554=CARTESIAN_POINT('',(2.50826573430004,0.222183478455733,0.));
#555=CARTESIAN_POINT('',(2.40819620544821,0.21610148376185,0.));
#556=CARTESIAN_POINT('',(2.30809144106998,0.209902044547609,0.));
#557=CARTESIAN_POINT('',(2.20799212433491,0.203387415775876,0.));
#558=CARTESIAN_POINT('',(2.10787059664165,0.196778734962321,0.));
#559=CARTESIAN_POINT('',(2.00779681347774,0.188923271197001,0.));
#560=CARTESIAN_POINT('',(1.9076237620832,0.18243438204876,0.));
#561=CARTESIAN_POINT('',(1.80752035542129,0.175258780332322,0.));
#562=CARTESIAN_POINT('',(1.70735445624459,0.169039828875508,0.));
#563=CARTESIAN_POINT('',(1.60721349772919,0.162295864246411,0.));
#564=CARTESIAN_POINT('',(1.50705953315355,0.154906510420777,0.));
#565=CARTESIAN_POINT('',(1.40687539750277,0.147472889601987,0.));
#566=CARTESIAN_POINT('',(1.30669506323524,0.139215805817268,0.));
#567=CARTESIAN_POINT('',(1.20646079220952,0.13108205869493,0.));
#568=CARTESIAN_POINT('',(1.10629197052632,0.121766167310277,0.));
#569=CARTESIAN_POINT('',(1.00608197992755,0.112464969933315,0.));
#570=CARTESIAN_POINT('',(0.905856674704748,0.102687125552374,0.));
#571=CARTESIAN_POINT('',(0.805617016596116,0.0927645951285131,0.));
#572=CARTESIAN_POINT('',(0.705387081613349,0.0824808241029206,0.));
#573=CARTESIAN_POINT('',(0.605163283395999,0.0719296105839243,0.));
#574=CARTESIAN_POINT('',(0.504924815058133,0.0613559760567905,0.));
#575=CARTESIAN_POINT('',(0.404687625312064,0.0506124771701901,0.));
#576=CARTESIAN_POINT('',(0.304489639640936,0.0396252726161948,0.));
#577=CARTESIAN_POINT('',(0.204285523983612,0.0284638828691151,0.));
#578=CARTESIAN_POINT('',(0.105909451929386,0.0172674672174135,0.));
#579=CARTESIAN_POINT('',(0.0409594540625032,0.00957621317318922,0.));
#580=CARTESIAN_POINT('',(0.00939999999999999,0.00578,0.));
#581=CARTESIAN_POINT('',(-0.00661715851730058,0.00385333333333291,0.));
#582=CARTESIAN_POINT('',(-0.0226343170346011,0.00192666666666582,0.));
#583=CARTESIAN_POINT('',(-0.0386514755519017,-1.27628523454002E-015,0.));
#584=CARTESIAN_POINT('',(29.2245,0.,0.));
#585=MECHANICAL_DESIGN_GEOMETRIC_PRESENTATION_REPRESENTATION('',(#140,#141,
#142,#143),#586);
#586=(
GEOMETRIC_REPRESENTATION_CONTEXT(3)
GLOBAL_UNCERTAINTY_ASSIGNED_CONTEXT((#587))
GLOBAL_UNIT_ASSIGNED_CONTEXT((#592,#589,#588))
REPRESENTATION_CONTEXT('SEEB-ALR-as-built','TOP_LEVEL_ASSEMBLY_PART')
);
#587=UNCERTAINTY_MEASURE_WITH_UNIT(LENGTH_MEASURE(7.8740157480315E-007),
#592,'DISTANCE_ACCURACY_VALUE','Maximum Tolerance applied to model');
#588=(
NAMED_UNIT(*)
SI_UNIT($,.STERADIAN.)
SOLID_ANGLE_UNIT()
);
#589=(
CONVERSION_BASED_UNIT('DEGREE',#590)
NAMED_UNIT(#594)
PLANE_ANGLE_UNIT()
);
#590=PLANE_ANGLE_MEASURE_WITH_UNIT(PLANE_ANGLE_MEASURE(0.0174532925),#591);
#591=(
NAMED_UNIT(*)
PLANE_ANGLE_UNIT()
SI_UNIT($,.RADIAN.)
);
#592=(
CONVERSION_BASED_UNIT('INCH',#595)
LENGTH_UNIT()
NAMED_UNIT(#593)
);
#593=DIMENSIONAL_EXPONENTS(1.,0.,0.,0.,0.,0.,0.);
#594=DIMENSIONAL_EXPONENTS(0.,0.,0.,0.,0.,0.,0.);
#595=LENGTH_MEASURE_WITH_UNIT(LENGTH_MEASURE(25.4),#596);
#596=(
LENGTH_UNIT()
NAMED_UNIT(*)
SI_UNIT(.MILLI.,.METRE.)
);
ENDSEC;
END-ISO-10303-21;
